<svg width="24" height="24" viewBox="0 0 24 24" fill="none" xmlns="http://www.w3.org/2000/svg">
  <path d="M17 8C17 10.2091 15.2091 12 13 12C10.7909 12 9 10.2091 9 8C9 5.79086 10.7909 4 13 4C15.2091 4 17 5.79086 17 8Z" fill="#404040"/>
  <path d="M12.9998 14C8.80962 14 5.39982 17.3595 5.39982 21.5C5.39982 21.7761 5.62368 22 5.89982 22C6.17596 22 6.39982 21.7761 6.39982 21.5C6.39982 17.9117 9.36153 15 12.9998 15C16.6381 15 19.5998 17.9117 19.5998 21.5C19.5998 21.7761 19.8237 22 20.0998 22C20.376 22 20.5998 21.7761 20.5998 21.5C20.5998 17.3595 17.1901 14 12.9998 14Z" fill="#404040"/>
  <path d="M6 3L8 5L6 7" stroke="#404040" stroke-width="2" stroke-linecap="round" stroke-linejoin="round"/>
</svg>

