<svg width="24" height="24" viewBox="0 0 24 24" fill="none" xmlns="http://www.w3.org/2000/svg">
<g opacity="0.9">
<mask id="mask0_0_9" style="mask-type:alpha" maskUnits="userSpaceOnUse" x="0" y="0" width="24" height="24">
<rect width="24" height="24" fill="#D9D9D9"/>
</mask>
<g mask="url(#mask0_0_9)">
<path d="M7.8 5.225L6.8 2.225L8.2 1.775L9.2 4.75L7.8 5.225ZM11.25 4V1H12.75V4H11.25ZM16.2 5.225L14.8 4.75L15.8 1.775L17.2 2.25L16.2 5.225ZM2.15 23L1.85 21.025L7.125 20.225C7.30833 20.1917 7.47083 20.1125 7.6125 19.9875C7.75417 19.8625 7.85833 19.7083 7.925 19.525L8.775 16.875C8.85833 16.6417 8.85833 16.4167 8.775 16.2C8.69167 15.9833 8.54167 15.8167 8.325 15.7L7.5 18.3L5.6 17.7L7.8 10.75C7.83333 10.65 7.85 10.5417 7.85 10.425C7.85 10.3083 7.83333 10.2 7.8 10.1L4.45 16.4C4.18333 16.8833 3.8125 17.2708 3.3375 17.5625C2.8625 17.8542 2.35 18 1.8 18H1V16H1.8C1.98333 16 2.15417 15.9542 2.3125 15.8625C2.47083 15.7708 2.59167 15.6417 2.675 15.475L7.1 7.125L8.35 7.825C8.96667 8.175 9.40417 8.67917 9.6625 9.3375C9.92083 9.99583 9.94167 10.6667 9.725 11.35L8.95 13.8C9.68333 14.0833 10.2125 14.5833 10.5375 15.3C10.8625 16.0167 10.9083 16.75 10.675 17.5L9.825 20.15C9.64167 20.6833 9.3375 21.1375 8.9125 21.5125C8.4875 21.8875 7.99167 22.1167 7.425 22.2L2.15 23ZM21.85 23L16.575 22.2C16.0083 22.1167 15.5125 21.8875 15.0875 21.5125C14.6625 21.1375 14.3583 20.6833 14.175 20.15L13.325 17.5C13.0917 16.75 13.1375 16.0167 13.4625 15.3C13.7875 14.5833 14.3167 14.0833 15.05 13.8L14.275 11.35C14.0583 10.6667 14.0792 9.99583 14.3375 9.3375C14.5958 8.67917 15.0333 8.175 15.65 7.825L16.9 7.125L21.325 15.475C21.4083 15.6417 21.5292 15.7708 21.6875 15.8625C21.8458 15.9542 22.0167 16 22.2 16H23V18H22.2C21.65 18 21.1375 17.8542 20.6625 17.5625C20.1875 17.2708 19.8167 16.8833 19.55 16.4L16.2 10.1C16.1667 10.2 16.15 10.3083 16.15 10.425C16.15 10.5417 16.1667 10.65 16.2 10.75L18.4 17.7L16.5 18.3L15.675 15.7C15.4583 15.8167 15.3083 15.9833 15.225 16.2C15.1417 16.4167 15.1417 16.6417 15.225 16.875L16.075 19.525C16.1417 19.7083 16.2458 19.8625 16.3875 19.9875C16.5292 20.1125 16.6917 20.1917 16.875 20.225L22.15 21.025L21.85 23Z" fill="#1C1B1F"/>
</g>
</g>
</svg>
